<svg clip-rule="evenodd" fill-rule="evenodd" stroke-linecap="round" stroke-linejoin="round" version="1.1" viewBox="0 0 114 114" xmlns="http://www.w3.org/2000/svg">
 <path d="m100 43.3c1.21 5.83 1.1 11.6 0.105 17.1-1.01 5.6-3.05 10.9-5.94 15.7-1.16 1.91-2.44 3.74-3.85 5.49-1.41 1.73-2.92 3.38-4.56 4.92-4.82 4.53-10.7 8.14-17.4 10.2-5.36 1.67-10.8 2.3-16.1 1.96-5.57-0.376-11-1.78-16-4.09l-0.485 0.926c4.95 2.82 10.4 4.7 16.1 5.58 5.62 0.845 11.5 0.663 17.3-0.619 7.61-1.77 14.5-5.25 20-10 1.92-1.65 3.69-3.46 5.28-5.4 1.6-1.96 3.02-4.04 4.24-6.24 3.02-5.45 4.91-11.5 5.53-17.8 0.52-5.98-0.218-12.1-2.24-18.2l-2.03 0.54z" fill="#0090dd" stroke-width=".742"/>
 <path d="m23.5 83.7c-2.22-2.42-4.21-5.09-5.85-8.01-1.6-2.86-2.88-5.94-3.84-9.24-0.365-1.63-0.646-3.25-0.81-4.88-0.67-6.65 0.411-13.1 2.54-19.1 1.14-3.23 2.66-6.28 4.4-9.21 2.31-3.89 5.06-7.53 8.37-10.7 4.88-4.63 10.8-8.34 17.7-10.4 5.61-1.72 11.3-2.35 16.8-1.85 3.83 0.35 7.58 1.18 11.1 2.57 3.98 1.57 7.66 3.86 10.9 6.58 3.25 2.66 6.08 5.84 8.47 9.38 0.313 0.468 0.522 1 0.912 1.41 0.3 0.31 0.646 0.433 1 0.683l1.42-0.9c-0.0867-0.444-0.0798-0.821-0.267-1.23-0.246-0.539-0.71-0.944-1.08-1.4-3.89-4.87-8.7-8.79-14-11.8-2.28-1.27-4.68-2.34-7.13-3.26-2.7-1.03-5.49-1.87-8.35-2.46-6.54-1.35-13.4-1.46-20.4 0.126-7.55 1.72-14.2 5.08-19.7 9.76-3.82 3.25-7.11 7.07-9.57 11.4-1.84 3.23-3.18 6.74-4.08 10.4-1.61 6.52-1.61 13.4-0.161 20.3 0.344 1.63 0.743 3.26 1.26 4.88 0.836 3.37 2.05 6.54 3.53 9.55 1.54 3.1 3.38 5.99 5.51 8.64l1.28-1.09z" fill="#0090dd" stroke-width=".742"/>
 <path d="m93.2 35.7c-0.569 3.7 2.02 7.19 5.73 7.75 1.96 0.297 3.85-0.279 5.31-1.43 1.29-1.03 2.22-2.53 2.49-4.27 0.569-3.7-2.02-7.19-5.73-7.75-3.71-0.564-7.23 2.01-7.8 5.7z" fill="none" stroke="#0090dd" stroke-width="3.58px"/>
 <path d="m85.5 51.2s1.2-1.11 2.66-2.59c2.62-2.55 6.17-6.1 6.17-6.1l-1.15-1.34s-4.13 2.86-7.05 5.08c-1.68 1.24-2.96 2.26-2.96 2.26l2.35 2.73z" fill="#0090dd" stroke-width="4.56"/>
 <g fill="none">
  <path d="m51.7 82.7h25.9c1.45 0 2.62-1.16 2.62-2.6v-25.8c0-1.44-1.17-2.6-2.62-2.6h-38.4c-1.45 0-2.62 1.16-2.62 2.6v15.3" stroke="#22b638" stroke-linecap="butt" stroke-linejoin="miter" stroke-width="5.88px"/>
  <path d="m45.8 51.7v-12.4c0-6.8 5.65-12.4 12.5-12.4s12.5 5.62 12.5 12.4v12.4" stroke="#22b638" stroke-width="5.88px"/>
  <path d="m44.4 87.4c0.239-1.81 1.42e-4 -3.57-0.618-5.17-1.37-3.55-4.59-6.31-8.64-6.84-5.86-0.765-11.3 3.39-12.1 9.2-0.768 5.81 3.41 11.2 9.26 12 5.85 0.763 11.3-3.39 12.1-9.2z" stroke="#0090dd" stroke-width="5.25px"/>
 </g>
 <path d="m55.4 66.6s-6.62 3.88-11.4 6.95c-2.68 1.72-4.72 3.18-4.72 3.18l4.21 5.35s1.89-1.62 4.24-3.76c4.1-3.84 9.51-9.25 9.51-9.25l-1.9-2.41z" fill="#0090dd" stroke-width="4.91"/>
</svg>
