<?xml version="1.0" encoding="utf-8" ?><svg xmlns="http://www.w3.org/2000/svg" xmlns:xlink="http://www.w3.org/1999/xlink" width="739" height="737" viewBox="0 0 739 737"><path fill="#1E334B" d="M10.1147 355.642C9.69891 344.224 10.111 331.173 10.097 319.603L10.0827 244.484L10.0851 185.76C10.1329 163.866 9.01708 145.605 14.271 123.947C19.9589 100.544 31.5641 78.9955 47.973 61.3691C73.7885 33.5811 106.588 19.3452 144.406 18.1351C156.693 17.7419 169.644 17.9781 181.978 17.9845L244.627 17.9788L443.24 17.9684L548.763 17.9931C568.457 17.9967 590.303 17.0692 609.514 19.5451C677.639 28.3251 729.914 88.4223 730.416 156.885C730.489 166.797 730.518 176.75 730.527 186.675L730.505 247.68L730.491 445.442L730.538 539.845L730.586 567.646C730.603 579.504 730.767 589.017 728.779 600.78C724.668 625.101 714.091 647.537 697.043 665.509C696.861 665.702 696.677 665.893 696.492 666.082C692.99 669.338 681.566 680.18 677.958 681.889C676.117 683.288 674.594 684.476 672.613 685.677C669.207 687.775 665.744 690.005 662.19 691.822C648.343 699.17 633.515 704.435 617.967 706.917C617.183 707.042 612.402 707.762 611.803 707.761C602.549 709.779 584.067 709.94 574.497 709.941L539.148 709.921L414.468 709.923L230.751 709.961L182.392 709.932C161.995 709.937 146.553 710.163 126.083 707.601C104.832 703.112 93.6383 700.667 74.1283 688.972C67.3577 685.089 54.7233 675.285 49.5102 669.545C47.3792 667.325 45.2703 665.083 43.1838 662.82C16.3814 633.647 8.55617 596.043 10.1624 557.498C9.92853 555.57 10.0549 550.647 10.0563 548.503L10.0736 530.536L10.0444 473.77L10.0497 389.21C10.1237 382.494 10.1203 375.778 10.0398 369.063C10.0017 365.183 9.78039 359.255 10.1147 355.642Z"/><path fill="#FEF7E1" d="M202.909 373.47C201.54 372.001 201.542 370.28 201.507 368.27C201.365 360.059 201.403 351.802 201.4 343.59L201.382 299.691L201.364 268.186C201.364 261.263 201.002 251.795 201.937 245.071C220.92 108.501 405.8 69.3487 499.374 156.632C526.065 181.293 542.874 214.825 546.664 250.971C547.807 262.225 547.366 278.514 547.355 290.208L547.272 339.59C547.236 349.568 546.984 360.101 547.328 370.049C553.427 367.84 564.856 362.459 571.181 364.792C573.527 365.657 574.403 368.591 572.917 370.771C567.885 378.153 559.233 383.26 552.401 388.93C550.838 390.221 547.75 392.142 546.695 393.156C548.177 395.417 547.23 414.861 547.209 419.165L547.033 504.416L547.01 524.94C547.013 526.933 547.24 534.023 546.587 535.573C551.503 540.337 556.674 544.074 561.777 548.528C572.778 558.13 584.251 567.665 595.199 577.28C595.07 574.553 594.897 571.694 595.286 568.983L595.35 576.938C601.792 583.573 615.451 594.558 622.864 600.994C638.95 615.225 655.12 629.359 671.373 643.397C676.118 647.481 694.163 662.207 696.492 666.082C692.99 669.338 681.566 680.18 677.958 681.889C676.117 683.288 674.594 684.476 672.613 685.677C669.207 687.775 665.744 690.005 662.19 691.822C648.343 699.17 633.515 704.435 617.967 706.917C617.183 707.042 612.402 707.762 611.803 707.761C602.549 709.779 584.067 709.94 574.497 709.941L539.148 709.921L414.468 709.923L230.751 709.961L182.392 709.932C161.995 709.937 146.553 710.163 126.083 707.601C104.832 703.112 93.6383 700.667 74.1283 688.972C67.3577 685.089 54.7233 675.285 49.5102 669.545C55.6188 663.089 63.5861 656.722 70.4634 650.992L97.9828 628.187C117.206 612.432 136.197 595.831 155.426 579.956C158.937 577.548 162.485 574.428 165.828 571.724C170.837 567.729 175.822 563.705 180.782 559.651C184.277 556.737 187.842 553.425 191.607 550.91C194.101 549.245 195.331 549.583 198.152 550.263L198.671 437.676L198.73 406.77C198.744 393.564 197.923 385.978 202.909 373.47Z"/><defs><linearGradient id="gradient_0" gradientUnits="userSpaceOnUse" x1="517.02057" y1="683.93219" x2="526.16223" y2="494.58176"><stop offset="0" stop-color="#84161D"/><stop offset="1" stop-color="#D03832"/></linearGradient></defs><path fill="url(#gradient_0)" d="M371.595 491.914L444.942 491.854C456.881 491.855 473.201 491.305 484.865 491.957C488.789 491.846 495.085 491.28 498.637 492.751C499.229 492.997 501.876 495.444 502.487 496.02C516.796 509.634 531.503 522.824 546.587 535.573C551.503 540.337 556.674 544.074 561.777 548.528C572.778 558.13 584.251 567.665 595.199 577.28C595.07 574.553 594.897 571.694 595.286 568.983L595.35 576.938C601.792 583.573 615.451 594.558 622.864 600.994C638.95 615.225 655.12 629.359 671.373 643.397C676.118 647.481 694.163 662.207 696.492 666.082C692.99 669.338 681.566 680.18 677.958 681.889C676.117 683.288 674.594 684.476 672.613 685.677C669.207 687.775 665.744 690.005 662.19 691.822C648.343 699.17 633.515 704.435 617.967 706.917C617.183 707.042 612.402 707.762 611.803 707.761C602.549 709.779 584.067 709.94 574.497 709.941L539.148 709.921L414.468 709.923L230.751 709.961L182.392 709.932C161.995 709.937 146.553 710.163 126.083 707.601C104.832 703.112 93.6383 700.667 74.1283 688.972C67.3577 685.089 54.7233 675.285 49.5102 669.545C55.6188 663.089 63.5861 656.722 70.4634 650.992L97.9828 628.187C117.206 612.432 136.197 595.831 155.426 579.956C158.937 577.548 162.485 574.428 165.828 571.724C170.837 567.729 175.822 563.705 180.782 559.651C184.277 556.737 187.842 553.425 191.607 550.91C194.101 549.245 195.331 549.583 198.152 550.263C198.146 553.222 197.738 558.683 199.755 560.735C207.692 564.332 214.359 566.042 223 567.137C221.351 575.209 220.69 583.012 219.297 590.964C222.641 592.45 228.617 594.894 232.29 595.108C233.875 595.153 238.591 596.459 240.297 596.904C254.575 600.633 268.857 600.757 283.57 601.059C304.226 601.532 324.891 600.856 345.472 599.035C353.198 598.318 360.784 597.174 368.287 595.248C368.976 595.071 369.244 595.039 369.678 595.451C370.358 594.737 375.668 593.008 377.034 592.519C377.03 582.471 375.731 569.184 375.176 558.879L371.595 491.914Z"/><defs><linearGradient id="gradient_1" gradientUnits="userSpaceOnUse" x1="163.50597" y1="716.40631" x2="143.43047" y2="569.73639"><stop offset="0" stop-color="#74131C"/><stop offset="1" stop-color="#B82A29"/></linearGradient></defs><path fill="url(#gradient_1)" d="M155.426 579.956C158.937 577.548 162.485 574.428 165.828 571.724C170.837 567.729 175.822 563.705 180.782 559.651C184.277 556.737 187.842 553.425 191.607 550.91C194.101 549.245 195.331 549.583 198.152 550.263C198.146 553.222 197.738 558.683 199.755 560.735C207.692 564.332 214.359 566.042 223 567.137C221.351 575.209 220.69 583.012 219.297 590.964C222.641 592.45 228.617 594.894 232.29 595.108C230.359 633.082 228.712 671.07 227.349 709.069C221.887 708.169 211.006 708.797 205.214 708.851C183.125 709.058 161.168 709.825 139.12 707.823C134.89 707.439 130.225 706.696 126.083 707.601C104.832 703.112 93.6383 700.667 74.1283 688.972C67.3577 685.089 54.7233 675.285 49.5102 669.545C55.6188 663.089 63.5861 656.722 70.4634 650.992L97.9828 628.187C117.206 612.432 136.197 595.831 155.426 579.956Z"/><defs><linearGradient id="gradient_2" gradientUnits="userSpaceOnUse" x1="116.16353" y1="692.07477" x2="131.92657" y2="543.64172"><stop offset="0" stop-color="#DC9E47"/><stop offset="1" stop-color="#FFCC62"/></linearGradient></defs><path fill="url(#gradient_2)" d="M155.426 579.956C158.937 577.548 162.485 574.428 165.828 571.724C170.837 567.729 175.822 563.705 180.782 559.651C184.277 556.737 187.842 553.425 191.607 550.91C194.101 549.245 195.331 549.583 198.152 550.263C198.146 553.222 197.738 558.683 199.755 560.735C198.119 563.695 187.838 573.548 184.917 576.511L150.31 611.546C133.673 628.728 116.942 645.818 100.117 662.816C92.4297 670.655 82.0932 681.719 74.1283 688.972C67.3577 685.089 54.7233 675.285 49.5102 669.545C55.6188 663.089 63.5861 656.722 70.4634 650.992L97.9828 628.187C117.206 612.432 136.197 595.831 155.426 579.956Z"/><path fill="#141E2D" d="M232.29 595.108C233.875 595.153 238.591 596.459 240.297 596.904C254.575 600.633 268.857 600.757 283.57 601.059C304.226 601.532 324.891 600.856 345.472 599.035C353.198 598.318 360.784 597.174 368.287 595.248C368.976 595.071 369.244 595.039 369.678 595.451C371.666 616.756 372.968 639.814 375.599 660.909C376.435 670.618 377.388 680.317 378.459 690.004C379.077 695.804 380.154 703.464 380 709.18C399.899 708.787 419.33 709.113 439.204 709.128L577.21 709.115C583.363 709.069 589.454 708.393 595.505 708.152C598.546 708.032 609.919 706.786 611.803 707.761C602.549 709.779 584.067 709.94 574.497 709.941L539.148 709.921L414.468 709.923L230.751 709.961L182.392 709.932C161.995 709.937 146.553 710.163 126.083 707.601C130.225 706.696 134.89 707.439 139.12 707.823C161.168 709.825 183.125 709.058 205.214 708.851C211.006 708.797 221.887 708.169 227.349 709.069C228.712 671.07 230.359 633.082 232.29 595.108Z"/><path fill="#7E161D" d="M375.599 660.909C375.889 660.163 376.787 657.739 377.498 657.455C380.253 656.354 383.316 656.294 386.233 656.218C386.951 656.2 388.605 657.395 389.271 657.844C390.668 657.226 389.848 656.088 390.852 656.495C393.972 657.759 406.552 660.362 409.459 659.47C409.643 659.552 412.254 660.722 412.255 660.722C412.798 660.848 415.362 659.589 415.318 660.775C415.296 661.383 420.435 661.151 421.219 661.357C422.052 661.577 423.872 660.988 424.91 660.65L425.253 660.949C429.712 664.777 430.045 662.183 434.785 661.917C436.006 661.849 440.115 664.035 441.768 663.852C444.363 664.153 450.685 662.604 452.651 662.893C457.407 663.591 462.032 664.441 466.968 664.519C468.643 664.545 470.271 664.642 472.007 664.574C473.26 664.526 475.343 663.878 476.262 664C482.067 664.772 488.092 664.828 493.95 665.277C495.766 665.416 498.326 665.547 500.097 665.622C500.576 665.642 503.985 664.847 504.639 664.695C505.282 665.273 505.125 665.125 505.618 665.846C509.255 665.833 512.784 665.953 516.452 666.031C519.201 666.089 522.508 665.093 525.319 664.91C527.2 664.788 529.171 663.957 530.926 665.281C531.732 665.851 533.607 665.354 534.554 665.658C540.051 666.642 545.319 668.093 550.948 668.146C552.352 668.159 554.953 669.3 556.451 669.599C559.813 670.268 563.053 671.166 566.516 671.236C575.018 671.407 583.451 672.316 591.945 672.695C593.979 672.786 596.3 671.85 598.354 671.754C604.781 672.83 611.257 672.937 617.699 673.891C620.161 674.256 622.543 673.356 624.96 674.404C628.176 675.417 634.193 675.189 637.134 676.85C638.528 676.203 637.848 676.538 639.243 677.03C643.735 678.615 648.533 679.493 652.884 681.533C654.581 682.468 655.856 686.109 659.17 687.921C659.116 689.024 659.013 689.249 658.728 690.295L659.189 690.952C660.076 691.096 660.607 691.135 661.507 691.189L662.19 691.822C648.343 699.17 633.515 704.435 617.967 706.917C617.183 707.042 612.402 707.762 611.803 707.761C609.919 706.786 598.546 708.032 595.505 708.152C589.454 708.393 583.363 709.069 577.21 709.115L439.204 709.128C419.33 709.113 399.899 708.787 380 709.18C380.154 703.464 379.077 695.804 378.459 690.004C377.388 680.317 376.435 670.618 375.599 660.909Z"/><defs><linearGradient id="gradient_3" gradientUnits="userSpaceOnUse" x1="605.65082" y1="692.7276" x2="577.68872" y2="480.61844"><stop offset="0" stop-color="#E29F46"/><stop offset="1" stop-color="#FFDB6F"/></linearGradient></defs><path fill="url(#gradient_3)" d="M484.865 491.957C488.789 491.846 495.085 491.28 498.637 492.751C499.229 492.997 501.876 495.444 502.487 496.02C516.796 509.634 531.503 522.824 546.587 535.573C551.503 540.337 556.674 544.074 561.777 548.528C572.778 558.13 584.251 567.665 595.199 577.28C595.07 574.553 594.897 571.694 595.286 568.983L595.35 576.938C601.792 583.573 615.451 594.558 622.864 600.994C638.95 615.225 655.12 629.359 671.373 643.397C676.118 647.481 694.163 662.207 696.492 666.082C692.99 669.338 681.566 680.18 677.958 681.889C676.117 683.288 674.594 684.476 672.613 685.677L669.331 681.874C668.12 681.029 657.559 670.087 656.009 668.51L621.38 633.183C588.463 599.818 555.853 566.152 523.554 532.188C511.436 519.49 496.248 504.906 484.865 491.957Z"/><path fill="#DFA349" d="M669.331 681.874C670.77 682.674 671.556 683.512 673.202 683.66C674.642 682.33 675.996 681.979 677.958 681.889C676.117 683.288 674.594 684.476 672.613 685.677L669.331 681.874Z"/><path fill="#1E334B" d="M263.18 315.893C263.57 313.065 265.017 308.535 266.418 306.054C285.955 305.419 303.454 306.949 321.303 315.709C326.627 318.322 331.703 320.483 335.366 325.462C335.895 326.172 336.107 326.505 336.924 326.869C337.338 327.643 338.056 328.982 338.762 329.452C345.643 334.027 351.699 334.647 358.397 340.366C361.034 342.326 363.301 344.248 364.426 347.439C376.726 362.474 387.65 378.549 400.082 393.495C402.659 396.593 415.293 410.361 416.176 412.661C416.63 413.844 416.778 414.814 417.755 415.631C425.158 412.051 433.062 408.07 440.516 404.725C441.835 403.971 443.463 403.192 444.836 402.489C445.863 401.662 449.852 400.047 451.135 399.544C455.947 409.733 461.475 420.15 467.254 429.848C470.182 434.762 475.476 441.019 477.838 445.262C475.693 446.314 470.971 448.263 469.314 449.529C461.215 453.972 448.646 458.914 440.161 462.675C434.052 465.383 420.204 471.259 413.977 472.488C412.927 473.28 411.893 473.91 410.655 474.375C401.84 477.684 378.929 463.71 370.061 459.693C370.739 470.57 371.004 481.118 371.595 491.914L375.176 558.879C375.731 569.184 377.03 582.471 377.034 592.519C375.668 593.008 370.358 594.737 369.678 595.451C369.244 595.039 368.976 595.071 368.287 595.248C360.784 597.174 353.198 598.318 345.472 599.035C324.891 600.856 304.226 601.532 283.57 601.059C268.857 600.757 254.575 600.633 240.297 596.904C238.591 596.459 233.875 595.153 232.29 595.108C228.617 594.894 222.641 592.45 219.297 590.964C220.69 583.012 221.351 575.209 223 567.137C214.359 566.042 207.692 564.332 199.755 560.735C197.738 558.683 198.146 553.222 198.152 550.263L198.671 437.676L198.73 406.77C198.744 393.564 197.923 385.978 202.909 373.47C209.096 359.818 226.74 340.372 240.257 334.045C245.881 330.785 252.48 329.037 258.821 327.875L260.198 327.452C261.748 325.445 262.653 318.692 263.18 315.893Z"/><path fill="#FEDD9D" d="M263.18 315.893C263.57 313.065 265.017 308.535 266.418 306.054C285.955 305.419 303.454 306.949 321.303 315.709C326.627 318.322 331.703 320.483 335.366 325.462C335.895 326.172 336.107 326.505 336.924 326.869C337.338 327.643 338.056 328.982 338.762 329.452C345.643 334.027 351.699 334.647 358.397 340.366C361.034 342.326 363.301 344.248 364.426 347.439L360.941 345.967C354.587 344.92 347.239 345.463 341.944 341.275C339.618 339.436 337.408 337.47 335.033 335.685C332.218 333.565 329.265 331.633 326.195 329.902C306.923 319.089 284.929 316.01 263.18 315.893Z"/><path fill="#FEDD9D" d="M444.836 402.489C445.863 401.662 449.852 400.047 451.135 399.544C455.947 409.733 461.475 420.15 467.254 429.848C470.182 434.762 475.476 441.019 477.838 445.262C475.693 446.314 470.971 448.263 469.314 449.529C468.181 447.244 466.862 444.926 465.526 442.748C457.531 429.707 450.984 416.469 444.836 402.489Z"/><path fill="#FEDD9D" d="M328.563 426.701C332.314 428.719 336.154 431.902 339.678 434.386C356.45 446.212 373.789 456.994 392.273 465.956C400.578 469.982 404.776 472.181 413.977 472.488C412.927 473.28 411.893 473.91 410.655 474.375C401.84 477.684 378.929 463.71 370.061 459.693C369.206 458.726 356.207 451.274 353.346 449.274C342.994 442.039 336.911 435.985 328.563 426.701Z"/><path fill="#141E2D" d="M440.516 404.725L440.834 404.688C442.03 404.539 442.15 404.55 443.27 403.988L443.126 405.027L443.232 404.892C437.018 407.886 430.845 410.879 424.515 413.624C422.415 414.535 419.686 416.285 417.652 416.767L417.167 416.511C417.441 415.784 417.225 416.063 417.755 415.631C425.158 412.051 433.062 408.07 440.516 404.725Z"/><path fill="#141E2D" d="M240.257 334.045C245.881 330.785 252.48 329.037 258.821 327.875L259.425 328.281C258.222 328.992 241.225 334.32 240.257 334.045Z"/><path fill="#FEDD9D" d="M339.552 469.89C344.119 468.721 348.764 471.497 349.899 476.074C351.035 480.65 348.227 485.276 343.644 486.379C339.106 487.471 334.538 484.697 333.414 480.166C332.289 475.635 335.031 471.046 339.552 469.89Z"/><path fill="#FEDD9D" d="M340.607 501.226C343.602 500.836 346.576 502.084 348.395 504.496C350.213 506.908 350.597 510.112 349.398 512.885C348.199 515.657 345.604 517.573 342.601 517.9C338.027 518.398 333.903 515.12 333.357 510.55C332.81 505.979 336.044 501.821 340.607 501.226Z"/><path fill="#FEDD9D" d="M339.818 533.32C342.742 532.657 345.797 533.617 347.817 535.833C349.837 538.05 350.509 541.182 349.578 544.033C348.647 546.883 346.255 549.014 343.317 549.61C338.845 550.517 334.476 547.657 333.517 543.195C332.559 538.733 335.368 534.33 339.818 533.32Z"/><path fill="#1E334B" d="M356.887 206.004C359.39 211.566 372.007 215.714 377.397 219.371C373.661 221.797 365.021 224.385 360.425 225.659C361.723 230.631 362.327 231.153 365.343 235.363C364.464 236.744 363.394 238.331 362.596 239.733C364.214 243.414 364.639 243.58 366.583 246.655C369.457 251.2 378.632 260.185 378.074 265.354C376.513 268.179 372.199 269.422 369.182 270.28C368.334 270.519 367.482 270.743 366.626 270.953C366.877 278.127 367.01 285.304 367.024 292.482C367.052 296.467 367.779 305.191 364.916 307.971C357.737 314.942 342.358 304.83 335.201 309.376C331.961 311.434 335.41 323.399 336.924 326.869C336.107 326.505 335.895 326.172 335.366 325.462C331.703 320.483 326.627 318.322 321.303 315.709C303.454 306.949 285.955 305.419 266.418 306.054C272.049 287.826 261.641 278.145 254.77 263.174C251.436 255.91 250.188 246.188 249.389 238.253C254.165 236.563 259.924 233.749 265.163 231.82C279.715 226.578 294.427 221.789 309.276 217.459C320.101 214.45 330.998 211.707 341.957 209.233C344.951 208.55 355.243 206.849 356.887 206.004Z"/><path fill="#1E334B" d="M237.146 201.506C237.753 201.59 238.661 201.638 239.209 201.355C244.633 198.561 250.019 196.172 255.671 193.877C283.272 182.63 311.853 173.956 341.049 167.966C346.434 166.829 352.89 165.444 358.449 165.321C359.684 165.294 362.013 167.055 363.611 167.316C366.956 171.598 362.141 180.769 359.946 184.827C358.007 188.411 356.691 191.31 355.384 195.177C355.453 199.157 356.634 202.494 356.887 206.004C355.243 206.849 344.951 208.55 341.957 209.233C330.998 211.707 320.101 214.45 309.276 217.459C294.427 221.789 279.715 226.578 265.163 231.82C259.924 233.749 254.165 236.563 249.389 238.253C248.576 233.387 247.865 231.837 245.902 227.162C240.676 221.988 223.319 217.735 230.404 207.173C231.766 205.144 234.998 202.717 237.146 201.506Z"/><path fill="#FEDD9D" d="M355.384 195.177C355.453 199.157 356.634 202.494 356.887 206.004C355.243 206.849 344.951 208.55 341.957 209.233C330.998 211.707 320.101 214.45 309.276 217.459C294.427 221.789 279.715 226.578 265.163 231.82C259.924 233.749 254.165 236.563 249.389 238.253C248.576 233.387 247.865 231.837 245.902 227.162C250.72 226.003 260.216 222.347 265.253 220.62C274.441 217.532 283.692 214.634 292.999 211.927C303.246 208.772 313.563 205.855 323.945 203.176C334.148 200.588 345.385 198.141 355.384 195.177Z"/><path fill="#1E334B" d="M495.81 369.834C497.161 369.793 510.255 363.078 512.195 361.902C516.778 359.195 521.105 355.041 526.004 352.97C534.139 349.532 531.878 356.025 533.198 358.677C529.872 365.704 522.642 368.585 517.172 373.077C521.023 374.569 522.199 374.639 526.351 374.733C535.589 373.842 538.802 372.406 547.154 370.383L547.328 370.049C553.427 367.84 564.856 362.459 571.181 364.792C573.527 365.657 574.403 368.591 572.917 370.771C567.885 378.153 559.233 383.26 552.401 388.93C550.838 390.221 547.75 392.142 546.695 393.156C537.622 399.397 529.347 404.62 518.169 406.151C513.446 406.797 508.657 406.939 504.032 407.808C502.01 408.188 503.956 414.185 504.284 415.401C503.956 418.143 503.985 419.942 504.012 422.721C492.375 417.344 485.057 400.972 484.086 388.768C484.138 388.446 484.194 388.124 484.255 387.803C485.201 382.89 491.784 372.624 495.81 369.834Z"/><path fill="#141E2D" d="M547.154 370.383L547.367 370.763C539.363 374.827 531.106 376.08 522.233 375.111C523.29 375.132 525.644 375.435 526.351 374.733C535.589 373.842 538.802 372.406 547.154 370.383Z"/><path fill="#1E334B" d="M455.846 397.242C458.734 395.815 471.926 389.117 473.988 388.847C476.048 405.891 483.121 425.269 498.63 434.371C493.25 438.03 483.877 442.429 477.838 445.262C475.476 441.019 470.182 434.762 467.254 429.848C461.475 420.15 455.947 409.733 451.135 399.544L455.846 397.242Z"/><path fill="#141E2D" d="M455.846 397.242C458.734 395.815 471.926 389.117 473.988 388.847L473.523 390.45C470.114 391.471 458.618 397.035 455.187 399.057L454.588 398.855C455.085 397.767 454.911 398.133 455.846 397.242Z"/><path fill="#FEDD9D" d="M482.037 385.595C482.843 387.17 482.971 387.425 484.086 388.768C485.057 400.972 492.375 417.344 504.012 422.721L504.389 423.112C504.114 423.849 504.083 426.115 502.661 426.009C501.106 425.894 496.719 426.117 495.571 425.069C489.549 419.575 485.561 412.473 481.706 405.396C480.871 403.866 477.797 399.918 477.724 398.719C477.366 392.874 478.695 389.9 482.037 385.595Z"/><path fill="#141E2D" d="M237.146 201.506C244.817 196.365 257.734 191.615 266.368 188.388C289.558 179.723 313.368 172.404 337.643 167.461C344.083 166.15 352.579 163.881 359.195 164.298C361.151 164.421 362.5 165.826 363.611 167.316C362.013 167.055 359.684 165.294 358.449 165.321C352.89 165.444 346.434 166.829 341.049 167.966C311.853 173.956 283.272 182.63 255.671 193.877C250.019 196.172 244.633 198.561 239.209 201.355C238.661 201.638 237.753 201.59 237.146 201.506Z"/><path fill="#141E2D" d="M495.81 369.834C499.699 365.56 506.27 363.987 511.553 361.071C516.148 358.534 524.828 349.564 530.699 351.004C534.271 351.88 534.527 355.499 533.198 358.677C531.878 356.025 534.139 349.532 526.004 352.97C521.105 355.041 516.778 359.195 512.195 361.902C510.255 363.078 497.161 369.793 495.81 369.834Z"/><path fill="#141E2D" d="M504.284 415.401C505.454 418.494 506.972 420.506 504.389 423.112L504.012 422.721C503.985 419.942 503.956 418.143 504.284 415.401Z"/><path fill="#FEDD9D" d="M155.083 448.801C155.648 405.463 155.171 361.045 155.164 317.616L155.157 272.465C155.159 260.715 154.963 248.843 156.051 237.187C165.059 140.673 248.936 70.191 342.229 59.3788C355.082 57.8892 367.166 57.6366 380.16 57.8115C441.47 58.2164 500.045 83.2513 542.715 127.288C573.924 159.372 591.498 198.71 594.708 243.261C595.449 253.539 595.295 263.982 595.302 274.292L595.31 317.148L595.292 404.636C595.289 419.98 594.993 436.5 595.36 451.755C595.123 460.662 595.21 468.584 595.417 477.511L595.321 539.129C595.319 548.462 595.616 559.807 595.286 568.983C594.897 571.694 595.07 574.553 595.199 577.28C584.251 567.665 572.778 558.13 561.777 548.528C556.674 544.074 551.503 540.337 546.587 535.573C547.24 534.023 547.013 526.933 547.01 524.94L547.033 504.416L547.209 419.165C547.23 414.861 548.177 395.417 546.695 393.156C547.75 392.142 550.838 390.221 552.401 388.93C559.233 383.26 567.885 378.153 572.917 370.771C574.403 368.591 573.527 365.657 571.181 364.792C564.856 362.459 553.427 367.84 547.328 370.049C546.984 360.101 547.236 349.568 547.272 339.59L547.355 290.208C547.366 278.514 547.807 262.225 546.664 250.971C542.874 214.825 526.065 181.293 499.374 156.632C405.8 69.3487 220.92 108.501 201.937 245.071C201.002 251.795 201.364 261.263 201.364 268.186L201.382 299.691L201.4 343.59C201.403 351.802 201.365 360.059 201.507 368.27C201.542 370.28 201.54 372.001 202.909 373.47C197.923 385.978 198.744 393.564 198.73 406.77L198.671 437.676L198.152 550.263C195.331 549.583 194.101 549.245 191.607 550.91C187.842 553.425 184.277 556.737 180.782 559.651C175.822 563.705 170.837 567.729 165.828 571.724C162.485 574.428 158.937 577.548 155.426 579.956C154.64 571.482 155.131 554.654 155.129 545.549L155.103 480.055C155.635 471.896 155.184 457.304 155.083 448.801Z"/><defs><linearGradient id="gradient_4" gradientUnits="userSpaceOnUse" x1="53.309067" y1="544.87146" x2="90.0662" y2="541.2431"><stop offset="0" stop-color="#D49947"/><stop offset="1" stop-color="#FFCE5B"/></linearGradient></defs><path fill="url(#gradient_4)" d="M68.1334 466.887C71.108 466.966 77.6134 467.29 80.2664 466.987L82.6147 467.109C83.4059 468 83.6334 468.14 84.2055 469.187C83.8144 475.899 83.4949 481.258 83.9587 487.986L83.9264 581.851L83.9012 607.563C83.8955 609.65 83.7295 618.236 83.9965 620.001C83.0431 620.102 80.8545 620.051 79.8047 620.059C78.4821 620.239 62.3101 619.926 60.1375 619.836C60.3814 607.863 60.1703 595.049 60.1615 583.02L60.0877 509.92C60.0884 497.351 59.4837 479.606 60.2044 467.606C62.7963 467.123 65.4948 467.037 68.1334 466.887Z"/><path fill="#DFA349" d="M82.6147 467.109C83.4059 468 83.6334 468.14 84.2055 469.187C83.8144 475.899 83.4949 481.258 83.9587 487.986L83.9264 581.851L83.9012 607.563C83.8955 609.65 83.7295 618.236 83.9965 620.001C83.0431 620.102 80.8545 620.051 79.8047 620.059C78.6343 619.821 76.2191 619.739 74.9384 619.658C74.7537 596.047 74.7534 572.434 74.9373 548.823L74.8865 473.892C77.2432 472.837 80.9839 472.235 82.5722 470.339C83.4082 469.341 82.9051 468.462 82.6147 467.109Z"/><path fill="#DFA349" d="M670.596 466.987C673.709 466.904 676.822 466.861 679.936 466.857C682.699 466.992 685.007 467.022 687.715 467.626L687.727 570.132C687.729 586.075 687.359 603.943 687.764 619.742C680.474 619.912 670.743 620.323 663.607 620.079L663.98 619.763C665.061 617.262 664.36 495.183 664.296 483.3L663.119 485.155C663.309 482.903 663.593 472.461 662.74 470.704C663.598 469.789 663.613 469.806 664.191 468.706C664.335 467.62 664.127 468.084 664.815 467.254C666.721 466.682 668.58 466.913 670.596 466.987Z"/><path fill="#7E161D" d="M664.191 468.706C664.288 472.342 664.578 479.905 664.296 483.3L663.119 485.155C663.309 482.903 663.593 472.461 662.74 470.704C663.598 469.789 663.613 469.806 664.191 468.706Z"/><path fill="#AE2C2B" d="M84.2055 469.187C85.4987 470.615 86.8011 472.035 88.1127 473.446C90.3629 475.869 92.5528 478.23 94.9512 480.509C107.504 492.439 124.84 495.253 137.939 482.587C140.318 480.259 142.41 477.655 144.172 474.831C147.019 470.335 154.971 453.838 155.083 448.801C155.184 457.304 155.635 471.896 155.103 480.055C154.976 478.754 154.87 477.055 154.609 475.813C145.36 511.015 113.492 517.758 88.9982 491.166C87.8465 489.915 85.5254 486.095 84.3052 485.594C83.8218 486.654 83.965 486.758 83.9587 487.986C83.4949 481.258 83.8144 475.899 84.2055 469.187Z"/><path fill="#AE2C2B" d="M595.36 451.755C600.08 465.12 605.813 481.651 619.505 488.098C634.191 495.013 648.936 488.554 658.461 476.52C659.91 474.69 661.295 472.467 662.74 470.704C663.593 472.461 663.309 482.903 663.119 485.155C662.657 488.136 657.096 493.482 654.955 495.493C635.357 513.902 612.003 510.669 599.154 486.792C597.919 484.498 596.862 478.896 595.417 477.511C595.21 468.584 595.123 460.662 595.36 451.755Z"/><defs><linearGradient id="gradient_5" gradientUnits="userSpaceOnUse" x1="677.66278" y1="466.34427" x2="675.68872" y2="425.68405"><stop offset="0" stop-color="#DF9D42"/><stop offset="1" stop-color="#FFD972"/></linearGradient></defs><path fill="url(#gradient_5)" d="M672.291 462.7C670.616 462.088 668.874 461.491 667.314 460.632C654.208 453.413 655.316 432.277 669.037 426.329C673.495 424.397 679.218 424.457 683.705 426.277C688.417 428.193 692.158 431.926 694.086 436.634C695.875 441.05 695.608 447.93 693.567 452.177C690.459 458.644 686.155 460.567 680.018 462.857C679.994 463.936 679.886 465.85 679.936 466.857C676.822 466.861 673.709 466.904 670.596 466.987C672.988 466.221 672.34 465.087 672.291 462.7Z"/><defs><linearGradient id="gradient_6" gradientUnits="userSpaceOnUse" x1="74.715561" y1="466.16943" x2="70.247299" y2="430.92932"><stop offset="0" stop-color="#D8963F"/><stop offset="1" stop-color="#FFD971"/></linearGradient></defs><path fill="url(#gradient_6)" d="M56.5931 434.265C63.1238 434.702 66.5151 433.418 72.6163 431.688C75.6419 430.83 77.4226 433.071 79.9684 430.025L80.6565 430.005L80.586 431.024L81.1611 431.122L81.8805 429.874C84.7703 429.269 84.8302 432.335 87.5623 433.417C89.8801 435.854 90.9155 441.149 90.8443 444.493C90.7416 449.572 88.5586 454.385 84.806 457.808C81.8355 460.544 79.5851 461.387 75.9657 462.786C75.9343 463.959 75.7139 465.54 76.3174 466.43C77.6201 467.129 78.8173 466.822 80.2664 466.987C77.6134 467.29 71.108 466.966 68.1334 466.887C68.5501 460.483 66.9906 463.105 62.2063 460.197C55.203 455.94 50.8887 445.887 54.0753 438.116C55.2104 437.529 55.965 435.519 56.5931 434.265Z"/><defs><linearGradient id="gradient_7" gradientUnits="userSpaceOnUse" x1="70.279991" y1="628.47772" x2="70.10601" y2="620.14899"><stop offset="0" stop-color="#DB9D46"/><stop offset="1" stop-color="#FBC356"/></linearGradient></defs><path fill="url(#gradient_7)" d="M60.1375 619.836C62.3101 619.926 78.4821 620.239 79.8047 620.059C80.8545 620.051 83.0431 620.102 83.9965 620.001C87.0241 619.983 95.8131 620.622 97.1197 623.768C94.9218 631.277 48.5646 631.008 43.8575 624.028C43.8505 619.933 57.0644 619.973 60.1375 619.836Z"/><defs><linearGradient id="gradient_8" gradientUnits="userSpaceOnUse" x1="680.03827" y1="628.41962" x2="679.65558" y2="619.68646"><stop offset="0" stop-color="#DD9E48"/><stop offset="1" stop-color="#FBC257"/></linearGradient></defs><path fill="url(#gradient_8)" d="M687.764 619.742C690.586 619.73 706.981 620.074 707.185 624.301C705.713 626.368 700.654 627.267 698.263 627.663C693.962 628.391 689.621 628.859 685.264 629.065C676.896 629.415 668.429 628.828 660.187 627.387C658.762 627.138 655.341 626.323 654.477 625.392C649.637 620.173 661.701 620.042 663.607 620.079C670.743 620.323 680.474 619.912 687.764 619.742Z"/><path fill="#0C253F" d="M10.1147 355.642C11.5741 357.503 11.0961 371.296 11.1132 374.272L10.9984 418.822C10.6885 456.961 12.5962 495.527 10.6418 533.658C10.2513 541.277 11.0424 549.404 10.5828 557.035L10.1624 557.498C9.92853 555.57 10.0549 550.647 10.0563 548.503L10.0736 530.536L10.0444 473.77L10.0497 389.21C10.1237 382.494 10.1203 375.778 10.0398 369.063C10.0017 365.183 9.78039 359.255 10.1147 355.642Z"/><path fill="#FEDD9D" d="M54.0753 438.116C56.6646 424.066 79.6871 419.648 87.5623 433.417C84.8302 432.335 84.7703 429.269 81.8805 429.874L81.1611 431.122L80.586 431.024L80.6565 430.005L79.9684 430.025C77.4226 433.071 75.6419 430.83 72.6163 431.688C66.5151 433.418 63.1238 434.702 56.5931 434.265C55.965 435.519 55.2104 437.529 54.0753 438.116Z"/></svg>