<?xml version="1.0" encoding="utf-8" ?><svg xmlns="http://www.w3.org/2000/svg" xmlns:xlink="http://www.w3.org/1999/xlink" width="181" height="199" viewBox="0 0 181 199"><path fill="#223953" d="M77.2962 0L86.1787 0C88.6875 1.24848 93.869 1.07982 96.851 1.63517C123.551 6.60751 146.174 24.5217 155.93 50.0207C161.861 65.5221 160.175 81.3491 160.4 97.6044C160.461 101.951 160.838 113.742 159.861 117.564C157.692 119.901 147.537 124.977 144.241 126.623C143.149 127.168 140.391 127.886 139.118 128.196L139.05 92.0219C139.061 74.8106 140.912 62.8388 131.624 47.7068C128.919 43.2185 125.678 39.0756 121.973 35.3693C90.2926 3.58374 30.0633 20.6609 21.7613 65.5894C20.1531 74.2926 20.7617 85.2124 20.7875 94.2156L20.8129 151.204L20.8436 168.446C20.8485 170.397 20.9673 175.534 20.7875 177.236C21.0814 181.363 20.7947 186.46 20.8657 190.71C20.8889 192.093 20.9173 197.488 20.7658 198.696L20.7774 199L0 199L0 97.0199L0 81.1923L0 71.9458L0 68.0492C0.580012 67.3129 1.90437 59.2947 2.38776 57.4032C9.8723 28.1156 34.7144 6.62428 64.3293 1.80577C67.9882 1.21046 74.0123 1.13127 77.2119 0.0296889L77.2962 0Z"/><path d="M0 97.0199C1.65558 98.8197 0.264452 106.68 0.562862 109.099C1.84918 119.528 -0.0321937 132.13 1.04623 142.334C1.2003 146.085 1.06801 150.17 1.07625 153.954C1.13644 161.637 1.13032 169.322 1.05787 177.005C1.01934 183.441 1.38619 191.065 1.1924 197.22C6.78583 197.586 13.1124 197.466 18.8207 197.595C19.191 196.869 19.1756 196.53 19.238 195.709C19.592 196.673 19.8129 197.235 19.3179 198.188L19.8316 198.234C20.033 197.841 19.9828 197.497 19.9814 197.047L20.2751 197.142C20.377 197.773 20.3925 198.177 20.7658 198.696L20.7774 199L0 199L0 97.0199Z"/><path fill="#000711" d="M0 81.1923L0.0556244 81.2584C1.14369 82.5708 0.88997 83.8379 0.885314 85.5944C1.24486 84.9749 0.747896 82.7527 1.1818 82.2244L1.29049 82.4305L1.23347 122.072L1.22026 134.966C1.21286 136.883 1.26135 140.535 1.04623 142.334C-0.0321937 132.13 1.84918 119.528 0.562862 109.099C0.264452 106.68 1.65558 98.8197 0 97.0199L0 81.1923Z"/><path fill="#030B1E" d="M0 71.9458L0.429426 70.9676C1.66897 72.0591 1.85125 81.0263 1.29049 82.4305L1.1818 82.2244C0.747896 82.7527 1.24486 84.9749 0.885314 85.5944C0.88997 83.8379 1.14369 82.5708 0.0556244 81.2584L0 81.1923L0 71.9458Z"/><path fill="#000711" d="M20.7875 177.236C21.0814 181.363 20.7947 186.46 20.8657 190.71C20.8889 192.093 20.9173 197.488 20.7658 198.696C20.3925 198.177 20.377 197.773 20.2751 197.142L19.9814 197.047C19.9828 197.497 20.033 197.841 19.8316 198.234L19.3179 198.188C19.8129 197.235 19.592 196.673 19.238 195.709C19.1467 193.885 19.3442 191.264 19.5428 189.459L19.7923 189.274L19.7291 188.759L19.8439 189.466L19.5821 189.553L19.5705 189.684L19.8668 189.843C19.9116 190.421 19.8152 192.177 19.7931 192.843C20.0091 193.314 20.0595 193.56 20.5029 193.816C20.2089 190.295 20.4413 180.869 20.7875 177.236Z"/><path fill="#223953" d="M55.2993 107.604C56.2314 108.471 59.8979 108.298 61.3469 108.509C65.145 109.062 69.1265 109.546 72.854 110.467C76.2851 111.329 79.6234 112.526 82.8208 114.041C83.8176 114.509 86.4059 115.925 87.2301 116.216C88.144 117.006 89.0494 117.806 89.9461 118.615C97.6413 125.954 104.218 134.645 111.615 142.328C114.03 144.836 116.272 147.844 118.672 150.457C121.884 147.878 127.44 145.386 129.78 143.441C130.663 142.744 131.972 141.931 132.94 141.293C134.424 140.313 139.517 137.883 141.703 136.618L143.197 135.698C144.71 136.757 149.29 147.107 150.141 149.343C150.72 150.916 152.386 153.309 152.068 154.389C151.833 154.568 151.59 154.791 151.31 154.857C147.278 156.577 144.193 160.151 139.883 161.858C137.313 162.875 133.948 166.233 131.434 167.481C126.053 170.151 120.636 173.847 115.361 176.55C113.153 174.899 110.53 172.847 108.536 170.919C104.073 166.604 99.2271 162.85 94.4743 158.868C91.8555 156.674 85.3963 148.924 82.2409 148.808L82.117 149.198C82.9914 150.833 86.8549 154.091 88.2654 155.671C91.2189 158.977 99.9696 164.573 99.9519 169.258C99.9238 176.65 100.205 184.151 99.9893 191.416C100.026 193.912 100.113 196.519 99.9414 199L27.0852 199L27.0731 197.422L27.0448 157.89C27.0377 154.374 26.7339 142.068 27.2472 139.477C27.3407 133.577 37.3841 124.472 42.5097 121.693C47.501 118.987 49.5243 117.978 51.8777 112.546C52.4811 110.279 53.5962 109.106 55.2993 107.604Z"/><path fill="#F0C874" d="M55.2993 107.604C56.2314 108.471 59.8979 108.298 61.3469 108.509C65.145 109.062 69.1265 109.546 72.854 110.467C76.2851 111.329 79.6234 112.526 82.8208 114.041C83.8176 114.509 86.4059 115.925 87.2301 116.216C88.144 117.006 89.0494 117.806 89.9461 118.615C88.7939 119.254 87.7244 119.599 86.487 120.041C83.815 119.145 80.2607 117.597 77.648 116.805C71.7429 115.014 57.5956 111.099 51.8777 112.546C52.4811 110.279 53.5962 109.106 55.2993 107.604Z"/><path d="M98.6785 197.053C98.7973 194.45 98.6845 193.709 99.9893 191.416C100.026 193.912 100.113 196.519 99.9414 199L27.0852 199L27.0731 197.422C28.1108 197.4 30.6462 197.567 32.0751 197.561L56.9349 197.584C58.9614 197.586 66.0705 197.732 67.6452 197.319C77.8212 196.965 88.2385 197.546 98.6785 197.053Z"/><path fill="#F0C874" d="M143.197 135.698C144.71 136.757 149.29 147.107 150.141 149.343C150.72 150.916 152.386 153.309 152.068 154.389C151.833 154.568 151.59 154.791 151.31 154.857C150.513 155.045 149.58 155.415 148.909 155.205C146.514 152.66 143.071 144.342 141.893 140.752C141.373 139.168 140.931 138.086 141.703 136.618L143.197 135.698Z"/><path fill="#F0C874" d="M132.94 141.293C134.665 144.345 140.608 156.515 141.529 159.663C140.266 160.644 139.731 161.251 138.655 162.452C137.412 158.534 134.996 154.668 133.174 150.91C132.503 149.527 130.349 144.284 129.78 143.441C130.663 142.744 131.972 141.931 132.94 141.293Z"/><path fill="#030B1E" d="M27.2472 139.477C27.2696 148.218 27.8375 156.764 27.9259 165.483C28.0281 175.559 27.4079 187.28 28.4443 197.244L53.7845 197.324C57.8804 197.316 63.6629 197.115 67.6452 197.319C66.0705 197.732 58.9614 197.586 56.9349 197.584L32.0751 197.561C30.6462 197.567 28.1108 197.4 27.0731 197.422L27.0448 157.89C27.0377 154.374 26.7339 142.068 27.2472 139.477Z"/><path fill="#FBF8F6" d="M84.1978 184.598C84.4778 178.679 91.8986 180.348 89.2924 186.944L89.581 187.08C89.3629 189.126 85.6353 188.563 84.5251 187.626C83.808 187.021 83.2337 184.575 83.7861 183.98L84.1978 184.598Z"/><path fill="#030B1E" d="M89.2924 186.944L89.581 187.08C89.3629 189.126 85.6353 188.563 84.5251 187.626C83.808 187.021 83.2337 184.575 83.7861 183.98L84.1978 184.598C85.0316 187.227 86.6307 188.264 89.2924 186.944Z"/><path fill="#FBF8F6" d="M86.2695 168.507C91.0005 168.275 91.495 172.712 88.1861 174.761C84.172 174.76 82.6201 170.6 86.2695 168.507Z"/><path fill="#223953" d="M39.0093 60.3663C44.7372 55.9379 73.1601 48.2354 81.3917 46.7447C84.1937 46.2499 93.7067 43.8869 96.0079 45.6493C100.805 49.3228 95.7719 56.3573 93.887 59.0489L94.0029 59.5896C95.4097 60.3336 97.7006 62.1057 98.2186 63.6322C101.662 67.5377 102.058 67.0482 103.138 72.2491C101.661 73.549 100.768 73.9841 99.064 74.9C101.965 87.2219 108.534 89.0262 100.173 92.269C99.5522 92.5098 100.053 105.585 99.8423 108.67C95.7678 110.401 89.7396 109.946 84.7031 110.882C85.5199 112.708 86.126 114.61 87.2301 116.216C86.4059 115.925 83.8176 114.509 82.8208 114.041C79.6234 112.526 76.2851 111.329 72.854 110.467C69.1265 109.546 65.145 109.062 61.3469 108.509C59.8979 108.298 56.2314 108.471 55.2993 107.604C55.9964 106.17 56.9395 103.32 57.2934 101.795C52.0347 96.0169 48.2042 90.0926 45.9168 82.4678C45.4195 80.8104 45.2559 76.7497 44.618 75.5316C43.0006 72.4429 39.4205 70.7293 38.3479 66.8846C37.6231 64.2867 37.8532 62.6996 39.0093 60.3663Z"/><path fill="#F0C874" d="M98.2186 63.6322C98.1465 63.6841 97.4119 64.1971 97.3874 64.1992C82.9112 65.4154 68.36 70.0682 54.5142 74.3697C52.0502 75.1352 47.084 78.4504 45.4632 75.724C45.6266 73.6386 48.1394 73.094 49.7875 72.4527C62.4491 67.526 75.3994 63.7172 88.7417 61.1584C90.507 60.8198 92.3099 59.8555 94.0029 59.5896C95.4097 60.3336 97.7006 62.1057 98.2186 63.6322Z"/><path fill="#223953" d="M139.08 194.112L139.022 177.271C139.017 175.441 138.564 167.893 139.917 166.937C146.062 162.598 153.385 158.992 160.17 155.733C160.3 170.079 160.728 184.099 160.46 198.539L160.476 199L139.256 199C139.095 197.521 139.109 195.63 139.08 194.112Z"/><path d="M139.08 194.112C139.309 195.485 139.358 196.176 139.389 197.57C141.971 197.364 158.233 196.949 159.907 197.837L160.46 198.539L160.476 199L139.256 199C139.095 197.521 139.109 195.63 139.08 194.112Z"/><path fill="#223953" d="M143.197 135.698C143.729 135.789 144.403 136.03 144.744 135.625C145.576 134.636 146.56 132.88 147.456 132.007C150.644 128.906 156.703 124.44 160.723 122.599C161.545 125.251 162.592 128.976 163.593 131.519C167.395 130.095 171.375 128.369 175.425 128.01C179.77 127.626 179.961 129.764 180.609 133.127C177.848 142.063 166.177 145.924 159.161 150.151C157.9 150.911 156.197 152.764 154.65 152.729C152.419 152.015 153.03 149.017 151.258 147.89C150.494 148.243 150.576 148.466 150.141 149.343C149.29 147.107 144.71 136.757 143.197 135.698Z"/></svg>